<svg xmlns="http://www.w3.org/2000/svg" viewBox="0 0 253.42 43.66"><title>logo_messy_v1</title><g id="Layer_2" data-name="Layer 2" fill="#f2f4f9"><path d="M8.75,27.52l11.18-15a2.79,2.79,0,0,1,5,1.73l-.29,11.91,6.71-6.95a2.89,2.89,0,0,1,5,2v7.19a.42.42,0,0,0,.42.42h5.74A21.83,21.83,0,1,0,0,21.83a21.9,21.9,0,0,0,1.15,7h5A3.25,3.25,0,0,0,8.75,27.52Z" /><path d="M32.91,28.41V22.59l-7.48,7.74a2.48,2.48,0,0,1-4.26-1.8l.3-12.32-10,13.37a6.69,6.69,0,0,1-5.36,2.69H2.66a21.84,21.84,0,0,0,38.35,0H36.77A3.86,3.86,0,0,1,32.91,28.41Z"/><path d="M91.94,7.69A1.7,1.7,0,0,1,92.46,9V32.34a1.74,1.74,0,0,1-.53,1.28,1.79,1.79,0,0,1-1.26.52,1.75,1.75,0,0,1-1.28-.52,1.73,1.73,0,0,1-.52-1.28V15.18l-8.35,17a1.8,1.8,0,0,1-1.56.9A1.72,1.72,0,0,1,77.31,32L69.05,15.49V32.34a1.78,1.78,0,0,1-1.79,1.8A1.75,1.75,0,0,1,66,33.62a1.73,1.73,0,0,1-.52-1.28V9a1.79,1.79,0,0,1,3.38-.83L79.1,28.68l10-20.55a1.75,1.75,0,0,1,1.59-1A1.7,1.7,0,0,1,91.94,7.69Z"/><path d="M99.89,33.62a1.73,1.73,0,0,1-.52-1.28V9a1.7,1.7,0,0,1,.52-1.29,1.77,1.77,0,0,1,1.27-.5h15.61a1.73,1.73,0,0,1,1.28.47,1.6,1.6,0,0,1,.48,1.22,1.52,1.52,0,0,1-.48,1.17,1.76,1.76,0,0,1-1.28.45H103v8.39h9.91a1.79,1.79,0,0,1,1.26.47,1.67,1.67,0,0,1,0,2.38,1.79,1.79,0,0,1-1.26.47H103v8.63h13.81a1.8,1.8,0,0,1,1.28.45,1.53,1.53,0,0,1,.48,1.17,1.63,1.63,0,0,1-.48,1.23,1.77,1.77,0,0,1-1.28.47H101.16A1.74,1.74,0,0,1,99.89,33.62Z"/><path d="M126,33a8.17,8.17,0,0,1-3.78-4,1.81,1.81,0,0,1-.18-.69,1.27,1.27,0,0,1,.38-.91,1.93,1.93,0,0,1,1-.54,1.39,1.39,0,0,1,.35,0,1.9,1.9,0,0,1,1.05.32,2,2,0,0,1,.74.89,5.11,5.11,0,0,0,2.45,2.27,8.68,8.68,0,0,0,4,.94,7.73,7.73,0,0,0,4.39-1.2,3.7,3.7,0,0,0,1.79-3.26,4.45,4.45,0,0,0-1.52-3.37,7.86,7.86,0,0,0-4.62-1.71,11.82,11.82,0,0,1-6.74-2.5A6.59,6.59,0,0,1,123,14a6,6,0,0,1,1.26-3.81,7.91,7.91,0,0,1,3.46-2.46,13.63,13.63,0,0,1,4.91-.84,9.63,9.63,0,0,1,5,1.21,10.27,10.27,0,0,1,3.46,3.45,2.39,2.39,0,0,1,.41,1.24,1.45,1.45,0,0,1-.69,1.24,1.58,1.58,0,0,1-.9.25,2,2,0,0,1-1-.26,1.75,1.75,0,0,1-.69-.71,6.44,6.44,0,0,0-2.33-2.36,7,7,0,0,0-3.54-.82,7.85,7.85,0,0,0-4.24,1,3.28,3.28,0,0,0-1.63,3,3.79,3.79,0,0,0,1.45,3q1.45,1.2,5.18,1.59a10.86,10.86,0,0,1,6.43,2.5,7.11,7.11,0,0,1,2.27,5.51,6.83,6.83,0,0,1-1.34,4.26,8.11,8.11,0,0,1-3.58,2.66,12.81,12.81,0,0,1-4.78.88A12.39,12.39,0,0,1,126,33Z"/><path d="M149.76,33A8.17,8.17,0,0,1,146,29a2,2,0,0,1-.17-.69,1.27,1.27,0,0,1,.38-.91,1.89,1.89,0,0,1,1-.54,1.3,1.3,0,0,1,.34,0,1.85,1.85,0,0,1,1.05.32,2,2,0,0,1,.75.89,5.07,5.07,0,0,0,2.45,2.27,8.65,8.65,0,0,0,4,.94,7.72,7.72,0,0,0,4.38-1.2,3.71,3.71,0,0,0,1.8-3.26,4.45,4.45,0,0,0-1.52-3.37,7.89,7.89,0,0,0-4.63-1.71,11.79,11.79,0,0,1-6.73-2.5A6.56,6.56,0,0,1,146.71,14,6,6,0,0,1,148,10.16a7.94,7.94,0,0,1,3.45-2.46,13.65,13.65,0,0,1,4.92-.84,9.63,9.63,0,0,1,5,1.21,10.16,10.16,0,0,1,3.45,3.45,2.31,2.31,0,0,1,.41,1.24,1.45,1.45,0,0,1-.69,1.24,1.55,1.55,0,0,1-.89.25,1.93,1.93,0,0,1-1-.26,1.75,1.75,0,0,1-.69-.71,6.51,6.51,0,0,0-2.33-2.36,7,7,0,0,0-3.54-.82,7.89,7.89,0,0,0-4.25,1,3.29,3.29,0,0,0-1.62,3,3.76,3.76,0,0,0,1.45,3c1,.8,2.69,1.33,5.18,1.59a10.81,10.81,0,0,1,6.42,2.5,7.11,7.11,0,0,1,2.28,5.51,6.84,6.84,0,0,1-1.35,4.26,8.08,8.08,0,0,1-3.57,2.66,12.85,12.85,0,0,1-4.78.88A12.41,12.41,0,0,1,149.76,33Z"/><path d="M189.09,7.65a1.7,1.7,0,0,1,.43,1.18,2.13,2.13,0,0,1-.34,1.14L179.89,24.3v8a1.73,1.73,0,0,1-.52,1.28,1.75,1.75,0,0,1-1.28.52,1.78,1.78,0,0,1-1.76-1.8v-8L167.11,10a2.14,2.14,0,0,1-.38-1.11,1.56,1.56,0,0,1,.54-1.21,1.82,1.82,0,0,1,1.26-.48,1.54,1.54,0,0,1,.9.24,2.9,2.9,0,0,1,.69.76L178.2,21,186.41,8A1.79,1.79,0,0,1,188,7.17,1.4,1.4,0,0,1,189.09,7.65Z"/><path d="M190.61,34a2.25,2.25,0,0,1-.71-1.67,2.3,2.3,0,0,1,.71-1.71,2.26,2.26,0,0,1,1.67-.71,2.4,2.4,0,0,1,0,4.8A2.26,2.26,0,0,1,190.61,34Z"/><path d="M203.18,33.62a1.76,1.76,0,0,1-.51-1.28V9a1.73,1.73,0,0,1,.51-1.29,1.81,1.81,0,0,1,1.28-.5h15.61a1.74,1.74,0,0,1,1.28.47,1.6,1.6,0,0,1,.48,1.22,1.52,1.52,0,0,1-.48,1.17,1.77,1.77,0,0,1-1.28.45H206.26v8.39h9.91a1.8,1.8,0,0,1,1.26.47,1.67,1.67,0,0,1,0,2.38,1.8,1.8,0,0,1-1.26.47h-9.91V32.34a1.81,1.81,0,0,1-3.08,1.28Z"/><path d="M252.91,7.69A1.73,1.73,0,0,1,253.42,9V32.34a1.7,1.7,0,0,1-.53,1.28,1.79,1.79,0,0,1-1.26.52,1.78,1.78,0,0,1-1.8-1.8V15.18l-8.35,17a1.8,1.8,0,0,1-1.56.9A1.72,1.72,0,0,1,238.27,32L230,15.49V32.34a1.76,1.76,0,0,1-.51,1.28,1.78,1.78,0,0,1-1.28.52,1.78,1.78,0,0,1-1.8-1.8V9a1.74,1.74,0,0,1,.52-1.27,1.8,1.8,0,0,1,2.86.44l10.26,20.55L250,8.13a1.81,1.81,0,0,1,2.87-.44Z"/></g></svg>