<svg xmlns="http://www.w3.org/2000/svg" width="24" height="24" fill="none" viewBox="0 0 24 24">
    <path fill="#fff" fill-rule="evenodd" d="M12 0C5.373 0 0 5.373 0 12s5.373 12 12 12 12-5.373 12-12S18.627 0 12 0zM9.362 5.639c.682-.031.9-.039 2.639-.039h-.002c1.738 0 1.955.008 2.638.039.681.03 1.147.139 1.555.297.421.163.777.382 1.133.738s.575.713.739 1.134c.157.407.265.872.297 1.553.03.683.039.9.039 2.64 0 1.737-.008 1.955-.039 2.638-.032.68-.14 1.146-.297 1.553-.164.42-.383.778-.739 1.133a3.13 3.13 0 0 1-1.133.74c-.407.157-.873.265-1.554.296-.682.031-.9.04-2.638.04s-1.956-.009-2.639-.04c-.681-.03-1.146-.139-1.554-.297a3.132 3.132 0 0 1-1.133-.739 3.136 3.136 0 0 1-.738-1.133c-.158-.407-.266-.872-.297-1.554-.031-.682-.04-.9-.04-2.638s.009-1.956.04-2.639c.03-.681.138-1.146.297-1.553.164-.421.382-.778.738-1.134a3.134 3.134 0 0 1 1.134-.738c.407-.158.872-.266 1.554-.297z" clip-rule="evenodd"/>
    <path fill="#fff" fill-rule="evenodd" d="M11.427 6.753H12c1.708 0 1.911.006 2.586.037.624.029.963.133 1.188.22.299.117.512.255.736.48.224.223.362.437.479.735.087.226.192.564.22 1.188.03.675.037.878.037 2.586 0 1.708-.006 1.91-.037 2.585-.029.624-.133.963-.22 1.188a1.98 1.98 0 0 1-.48.735 1.979 1.979 0 0 1-.735.479c-.225.088-.564.192-1.188.22-.675.031-.878.038-2.586.038-1.71 0-1.912-.007-2.587-.038-.624-.028-.962-.133-1.188-.22a1.982 1.982 0 0 1-.736-.479 1.984 1.984 0 0 1-.479-.736c-.087-.225-.192-.564-.22-1.188-.031-.674-.037-.877-.037-2.586 0-1.71.006-1.91.037-2.585.028-.624.133-.963.22-1.189.116-.298.255-.512.479-.736.224-.224.437-.362.736-.479.226-.088.564-.192 1.188-.22.59-.027.82-.035 2.013-.036v.001zm3.99 1.063a.768.768 0 1 0 0 1.536.768.768 0 0 0 0-1.536zM8.714 12a3.287 3.287 0 1 1 6.574 0 3.287 3.287 0 0 1-6.574 0z" clip-rule="evenodd"/>
    <path fill="#fff" d="M12 9.867a2.133 2.133 0 1 1 0 4.266 2.133 2.133 0 0 1 0-4.266z"/>
</svg>
