<?xml version="1.0" encoding="UTF-8"?>
<svg width="195px" height="34px" viewBox="0 0 195 34" version="1.1" xmlns="http://www.w3.org/2000/svg" xmlns:xlink="http://www.w3.org/1999/xlink">
    <!-- Generator: Sketch 64 (93537) - https://sketch.com -->
    <title>Path 2</title>
    <desc>Created with Sketch.</desc>
    <defs>
        <linearGradient x1="87.3417752%" y1="51.0706565%" x2="16.4556944%" y2="48.8166431%" id="linearGradient-1">
            <stop stop-color="#4984C6" offset="0%"></stop>
            <stop stop-color="#4984C6" offset="0.00999999975%"></stop>
            <stop stop-color="#7F73C0" offset="100%"></stop>
        </linearGradient>
    </defs>
    <g id="Page-1" stroke="none" stroke-width="1" fill="none" fill-rule="evenodd">
        <g id="Artboard" transform="translate(-113.000000, -21.000000)" fill="url(#linearGradient-1)" fill-rule="nonzero">
            <g id="Navbar">
                <g id="logo_messy_v1.27aaffcc" transform="translate(113.000000, 21.000000)">
                    <path d="M16.4607451,12.4279776 L16.2307394,21.8735472 C16.2072235,22.6580968 16.668208,23.3764659 17.3912175,23.6819629 C18.114227,23.9874598 18.95065,23.8172911 19.4968211,23.2535817 L19.4968211,23.2535817 L25.2316312,17.3194333 L25.2316312,21.7815449 C25.2316312,23.4159804 26.556603,24.7409522 28.1910386,24.7409522 L28.1910386,24.7409522 L31.4417865,24.7409522 C28.508031,30.1216591 22.8691194,33.4697458 16.7405854,33.4697458 C10.6120515,33.4697458 4.97313991,30.1216591 2.03938435,24.7409522 L2.03938435,24.7409522 L4.68445052,24.7409522 C6.30293175,24.7403543 7.82618491,23.9758858 8.79388665,22.6785673 L8.79388665,22.6785673 L16.4607451,12.4279776 Z M147.418354,22.9315736 C148.434584,22.9315736 149.2584,23.7553903 149.2584,24.7716197 C149.2584,25.787849 148.434584,26.6116657 147.418354,26.6116657 C146.934261,26.617053 146.469991,26.4196685 146.137989,26.0673188 C145.784848,25.735869 145.587309,25.2712335 145.593642,24.7869534 C145.58341,24.2929807 145.780884,23.8173734 146.137989,23.4759206 C146.469991,23.1235709 146.934261,22.9261863 147.418354,22.9315736 Z M105.518973,6.21015535 C106.603134,6.86559524 107.513131,7.7729624 108.171706,8.85522152 C108.362718,9.13678833 108.471563,9.46597705 108.486047,9.80591197 C108.487417,10.1933406 108.286985,10.5535375 107.957034,10.7566024 C107.751602,10.8885749 107.511083,10.9553856 107.267017,10.9482739 C106.998406,10.950129 106.734021,10.8813889 106.500331,10.7489356 C106.275272,10.62219 106.091583,10.4331758 105.971318,10.2045886 C105.544028,9.45585413 104.928147,8.83204328 104.18494,8.39521001 C103.351363,7.95039484 102.415129,7.73352699 101.470872,7.76652762 C100.336658,7.71028518 99.2096743,7.97608314 98.2201237,8.53321346 C97.4059102,9.0055792 96.9236809,9.89311789 96.9704258,10.833271 C96.9660213,11.7304704 97.376332,12.579389 98.0821203,13.1333285 C98.8232499,13.7466772 100.147061,14.1530207 102.053553,14.352359 C103.861466,14.4384592 105.592088,15.1113292 106.983343,16.2690736 C108.154073,17.354437 108.790175,18.8984559 108.72372,20.4935127 C108.756917,21.666569 108.395114,22.8167759 107.696361,23.7595944 C106.990027,24.6825486 106.039155,25.3890629 104.951625,25.7989787 C103.784288,26.2556811 102.540315,26.4846971 101.286867,26.4736623 C99.6504069,26.4927098 98.036782,26.0886434 96.6024166,25.3006329 C95.3107976,24.6443063 94.2866324,23.5605336 93.7043441,22.2338895 C93.6237182,22.0684477 93.5768068,21.8886206 93.5663358,21.7048763 C93.5655116,21.4425655 93.6705543,21.1910159 93.8576812,21.0071922 C94.065898,20.795367 94.3330447,20.6511078 94.6243671,20.5931818 C94.7134565,20.5818756 94.8036177,20.5818756 94.8927071,20.5931818 C95.1793407,20.5939789 95.4593691,20.6793209 95.6977273,20.8385213 C95.9499638,21.0050805 96.147347,21.2424738 96.2650748,21.5208717 C96.678585,22.2950198 97.3400623,22.9078988 98.1434551,23.2612486 C99.0932904,23.7434592 100.145004,23.9906119 101.210199,23.9819333 C102.399019,24.0199557 103.571775,23.6993847 104.575949,23.0619102 C105.449307,22.5359235 105.973237,21.581727 105.948317,20.5625144 C105.952917,19.5730273 105.527704,18.6302844 104.782955,17.9787831 C103.773251,17.1734988 102.531545,16.7139062 101.240866,16.6677503 C99.3611563,16.5808372 97.5551185,15.9109419 96.0734033,14.7510357 C94.9016546,13.7517748 94.2496071,12.2726712 94.302359,10.7336018 C94.279558,9.67789573 94.6206545,8.64648489 95.2683832,7.81252877 C95.9642457,6.9538673 96.8815299,6.30169409 97.9211162,5.92648159 C99.1257107,5.48238879 100.401827,5.2640715 101.685544,5.28246548 C103.023835,5.23835788 104.348928,5.5590303 105.518973,6.21015535 Z M123.720095,6.18715478 C124.803541,6.84091053 125.711405,7.74877535 126.365161,8.83222094 C126.559208,9.11228339 126.668352,9.44237504 126.679502,9.78291139 C126.680872,10.1703401 126.48044,10.5305369 126.150489,10.7336018 C125.94783,10.8654115 125.70979,10.9322766 125.468139,10.9252733 C125.19921,10.9297425 124.934148,10.8608266 124.701453,10.725935 C124.476394,10.5991894 124.292704,10.4101752 124.17244,10.181588 C123.743167,9.4343592 123.127738,8.81100589 122.386062,8.37220944 C121.552485,7.92739427 120.616251,7.71052642 119.671994,7.74352704 C118.535361,7.68750227 117.405977,7.95323968 116.413579,8.51021289 C115.603613,8.98584284 115.125017,9.87213222 115.171548,10.8102704 C115.163629,11.7082618 115.57465,12.5586499 116.283242,13.110328 C117.049928,13.7236766 118.345627,14.1300201 120.254675,14.3293585 C122.060517,14.4143302 123.78905,15.0874348 125.176798,16.2460731 C126.350357,17.3300373 126.989341,18.874248 126.924842,20.4705121 C126.955233,21.644382 126.590764,22.7944863 125.889816,23.7365938 C125.186437,24.6592859 124.238078,25.3659064 123.152747,25.7759781 C121.985203,26.2319522 120.741372,26.460942 119.487989,26.4506617 C117.858821,26.4734246 116.251103,26.077435 114.818872,25.3006329 C113.532997,24.6414881 112.514556,23.5580405 111.936133,22.2338895 C111.861457,22.0667459 111.817315,21.8875806 111.805792,21.7048763 C111.804968,21.4425655 111.910011,21.1910159 112.097138,21.0071922 C112.304173,20.7938006 112.571839,20.6492608 112.863823,20.5931818 C112.95034,20.5817701 113.03798,20.5817701 113.124497,20.5931818 C113.411477,20.5916367 113.692176,20.677183 113.929517,20.8385213 C114.184594,21.0039385 114.384742,21.2414474 114.504531,21.5208717 C114.916116,22.2965027 115.578187,22.9099312 116.382911,23.2612486 C117.332435,23.7443107 118.38436,23.9915129 119.449655,23.9819333 C120.635942,24.0188828 121.805938,23.6983358 122.807739,23.0619102 C123.682846,22.5367031 124.209487,21.5828988 124.187773,20.5625144 C124.192374,19.5730273 123.76716,18.6302844 123.022411,17.9787831 C122.009814,17.1733951 120.765665,16.713893 119.472655,16.6677503 C117.595289,16.5807772 115.791714,15.9108013 114.31286,14.7510357 C113.115446,13.7659412 112.439344,12.2836076 112.48048,10.7336018 C112.458888,9.66726339 112.808501,8.62655688 113.469505,7.78952819 C114.164068,6.93285022 115.078314,6.2809536 116.114571,5.90348101 C117.321668,5.45879878 118.600406,5.2404777 119.886666,5.2594649 C121.224957,5.2153573 122.55005,5.53602972 123.720095,6.18715478 Z M90.5072641,5.8881473 C90.7579041,6.1330563 90.8918358,6.47346618 90.8752733,6.82350403 C90.8887175,7.16177081 90.7544019,7.48916511 90.5072641,7.72052647 C90.2776674,7.9275589 89.9852178,8.0484182 89.6795889,8.06564095 L78.9686421,8.0655351 L78.9686421,14.4980293 L86.5664988,14.4980293 C86.9231026,14.4880199 87.2695895,14.6172651 87.532523,14.8583717 C87.7769502,15.099033 87.914589,15.4277082 87.914589,15.7707278 C87.914589,16.1137475 87.7769502,16.4424227 87.532523,16.683084 C87.2695895,16.9241906 86.9231026,17.0534358 86.5664988,17.0434264 L78.9686421,17.0434264 L78.9686421,23.6599252 L89.5565736,23.6599252 C89.9161726,23.6425184 90.2683376,23.7663264 90.5379315,24.0049338 C90.7842171,24.2368821 90.9183661,24.5638702 90.9059407,24.9019563 C90.9217729,25.2541335 90.7881212,25.596616 90.5379315,25.8449799 C90.2720622,26.0913323 89.918689,26.2210865 89.5565736,26.2053222 L77.5579402,26.2053222 C77.1878743,26.203457 76.8352118,26.0479523 76.5842491,25.7759781 C76.3208353,25.5184216 76.1764092,25.1629112 76.1855725,24.7946203 L76.1855725,6.90017261 C76.1713519,6.52873051 76.3164042,6.16888916 76.5842491,5.91114787 C76.8445127,5.65833452 77.1951798,5.5202766 77.5579402,5.52780495 L89.5259062,5.52780495 C89.8885629,5.50850181 90.2432721,5.63874662 90.5072641,5.8881473 Z M193.87185,5.89581415 L193.902517,5.89581415 C194.169131,6.16016901 194.311217,6.52513445 194.293527,6.90017261 L194.293527,24.7946203 C194.303559,25.1645959 194.155824,25.5213902 193.887184,25.7759781 C193.630356,26.0310723 193.283145,26.1743659 192.921159,26.1747645 C192.553895,26.1788051 192.200461,26.0347421 191.940749,25.7750303 C191.681038,25.5153185 191.536975,25.1618848 191.541125,24.7946203 L191.541125,11.6382911 L185.139298,24.6719505 C184.892621,25.0992086 184.436623,25.3622841 183.943268,25.3619678 C183.389522,25.3790953 182.884115,25.0482837 182.678236,24.5339471 L176.337745,11.8759638 L176.337745,24.7946203 C176.346192,25.1612847 176.205023,25.5155913 175.946735,25.7759781 C175.686635,26.0355791 175.332831,26.1793119 174.965377,26.1747645 C174.598112,26.1788051 174.244679,26.0347421 173.984967,25.7750303 C173.725255,25.5153185 173.581192,25.1618848 173.585155,24.7946203 L173.585155,6.90017261 C173.579226,6.53469648 173.723342,6.18271967 173.984019,5.92648159 C174.294709,5.61851767 174.733013,5.47609832 175.165385,5.54261707 C175.597757,5.60913582 175.972985,5.87671389 176.176741,6.26382336 L184.042937,22.0192175 L191.671461,6.23315593 C191.877012,5.84583185 192.25353,5.57844382 192.686953,5.5119957 C193.120376,5.44554758 193.559706,5.58785778 193.87185,5.89581415 Z M69.5307394,5.46645282 C69.8962637,5.46886617 70.2439829,5.62464441 70.4890967,5.89581415 C70.7270543,6.12448037 70.8681296,6.4335313 70.887162,6.75958105 L70.8877733,24.7946203 C70.8940051,25.1638836 70.7468787,25.5192076 70.4814298,25.7759781 C70.2246024,26.0310723 69.8773908,26.1743659 69.5154056,26.1746548 C69.1474526,26.1819792 68.7926445,26.0378384 68.5340478,25.7759781 C68.270634,25.5184216 68.1262079,25.1629112 68.1353711,24.7946203 L68.1353711,11.6382911 L61.7335443,24.6719505 C61.4868669,25.0992086 61.0308694,25.3622841 60.5375144,25.3619678 C59.9837681,25.3790953 59.4783616,25.0482837 59.2724827,24.5339471 L52.9396577,11.8759638 L52.9396577,24.7946203 C52.9437753,25.1605439 52.8007583,25.5127902 52.5427167,25.7722735 C52.284675,26.0317567 51.9332309,26.1767338 51.56729,26.1746548 C51.2046339,26.1777854 50.8561572,26.0339696 50.6012658,25.7759781 C50.337852,25.5184216 50.1934259,25.1629112 50.2025892,24.7946203 L50.2025892,6.90017261 C50.1998115,6.2660599 50.631842,5.71261164 51.2476653,5.56138877 C51.8634886,5.41016589 52.5027323,5.70054974 52.7939873,6.26382336 L60.6448504,21.9885501 L68.3117089,6.23315593 C68.5348574,5.76270036 69.0100506,5.46383668 69.5307394,5.46645282 Z M169.705912,5.8881473 C169.956552,6.1330563 170.090484,6.47346618 170.073921,6.82350403 C170.087365,7.16177081 169.95305,7.48916511 169.705912,7.72052647 C169.475936,7.9269194 169.183668,8.04760449 168.878175,8.06533137 L158.136623,8.0655351 L158.136623,14.4980293 L165.734479,14.4980293 C166.090949,14.4888266 166.437143,14.6179627 166.700503,14.8583717 C166.944931,15.099033 167.082569,15.4277082 167.082569,15.7707278 C167.082569,16.1137475 166.944931,16.4424227 166.700503,16.683084 C166.437143,16.923493 166.090949,17.0526291 165.734479,17.0434264 L158.136623,17.0434264 L158.136623,24.7946203 C158.133655,25.3526096 157.796762,25.8545481 157.28149,26.0686872 C156.766218,26.2828262 156.172803,26.167509 155.77523,25.7759781 C155.516942,25.5155913 155.375773,25.1612847 155.38422,24.7946203 L155.38422,6.90017261 C155.370894,6.53038911 155.512643,6.17184929 155.77523,5.91114787 C156.039237,5.65932901 156.391795,5.52161126 156.756588,5.52780495 L168.724554,5.52780495 C169.087074,5.50940438 169.44144,5.63952299 169.705912,5.8881473 Z M144.136939,5.49713751 C144.456394,5.48929481 144.762732,5.62419605 144.972627,5.86514672 C145.193966,6.1135749 145.311914,6.43724733 145.302301,6.76983602 C145.300183,7.08002099 145.209765,7.38318716 145.041628,7.64385788 L137.919117,18.6304661 L137.919117,24.7639528 C137.92828,25.1322438 137.783854,25.4877542 137.52044,25.7453107 C137.261843,26.007171 136.907035,26.1513118 136.539082,26.1439873 C136.177134,26.1399434 135.831619,25.9922698 135.578559,25.7334581 C135.325498,25.4746464 135.185626,25.1259007 135.189715,24.7639528 L135.189715,18.6304661 L128.120872,7.66685846 C127.946375,7.41586467 127.845469,7.12111256 127.829531,6.81583717 C127.822827,6.46045002 127.974543,6.12049393 128.243541,5.8881473 C128.506559,5.64632409 128.852318,5.5146063 129.209566,5.52013809 C129.453051,5.50877686 129.694085,5.57305258 129.899583,5.70414269 C130.109166,5.86536754 130.28831,6.06268509 130.428596,6.28682394 L136.623418,16.1004028 L142.917909,6.13348677 C143.181005,5.71840573 143.645968,5.47568908 144.136939,5.49713751 Z M9.98899003,1.41908517 C16.0602986,-1.25570966 23.1384214,-0.0918404918 28.0335771,4.38619088 C32.9287329,8.86422224 34.7167355,15.8109812 32.5918153,22.0958861 L32.5918153,22.0958861 L28.1910386,22.0958861 C28.0131984,22.0958861 27.8690305,21.9517182 27.8690305,21.773878 L27.8690305,21.773878 L27.8690305,16.2614068 C27.8770165,15.3483507 27.3240754,14.5238949 26.4762917,14.1847815 C25.628508,13.845668 24.6595121,14.061349 24.0356013,14.7280351 L24.0356013,14.7280351 L18.8911392,20.0565017 L19.1134781,10.9252733 C19.1224532,10.005859 18.5428722,9.18356666 17.6739558,8.88292158 C16.8050394,8.58227651 15.8412038,8.87054672 15.2800489,9.59890679 L15.2800489,9.59890679 L6.70850115,21.0991945 C6.23953452,21.7295166 5.50075932,22.1017456 4.71511795,22.1035529 L4.71511795,22.1035529 L0.881688723,22.1035529 C0.298084957,20.3744227 0,18.5617135 0,16.736752 C-0.000573760613,10.1023482 3.9176815,4.09388 9.98899003,1.41908517 Z" id="Path-2"></path>
                </g>
            </g>
        </g>
    </g>
</svg>