<svg xmlns="http://www.w3.org/2000/svg" width="24" height="24" fill="none" viewBox="0 0 24 24">
    <path fill="#fff" fill-rule="evenodd" d="M12 0C5.373 0 0 5.373 0 12s5.373 12 12 12 12-5.373 12-12S18.627 0 12 0zm-.334 10.169l-.025-.415c-.076-1.076.587-2.06 1.636-2.44.387-.136 1.041-.153 1.47-.035.167.051.486.22.713.373l.411.28.453-.144c.252-.076.588-.204.739-.288.143-.077.269-.119.269-.094 0 .145-.311.636-.571.907-.353.382-.252.415.461.161.428-.144.437-.144.353.017-.05.085-.31.382-.588.653-.47.466-.495.517-.495.906 0 .602-.285 1.856-.57 2.543-.53 1.288-1.663 2.618-2.796 3.287-1.595.941-3.718 1.178-5.506.628-.596-.187-1.62-.661-1.62-.746 0-.026.31-.06.688-.068a4.726 4.726 0 0 0 2.25-.627l.453-.271-.52-.178c-.739-.254-1.402-.839-1.57-1.39-.05-.178-.034-.186.437-.186l.486-.009-.411-.195c-.487-.245-.932-.66-1.15-1.084-.16-.305-.36-1.076-.302-1.136.017-.025.193.026.394.093.58.212.655.161.32-.194-.63-.645-.823-1.602-.521-2.509l.143-.407.554.551c1.133 1.11 2.467 1.771 3.995 1.966l.42.051z" clip-rule="evenodd"/>
</svg>
